<?xml version="1.0" encoding="utf-8"?>
<svg viewBox="232.6689 -5.9347 100.001 301.08" xmlns="http://www.w3.org/2000/svg">
  <rect x="240.101" y="36.614" width="85.163" height="214.758" style="stroke: rgb(195, 48, 48); fill: rgb(101, 101, 101);"/>
  <g transform="matrix(1, 0, 0, 1, -37.33058113911196, -95.39464434696278)">
    <title>Layer 2</title>
    <g transform="translate(0 -63.54) matrix(1 0 0 1 -89.0005 -85.46)" id="imagebot_27">
      <g id="imagebot_28" fill="#FFFFFF" stroke-miterlimit="10" stroke-width="0.5" stroke="#231F20">
        <rect stroke-width="1.5" id="imagebot_29" x="359" y="527.54" width="100" height="12" style="fill: rgb(141, 141, 141);"/>
        <path stroke-width="1.5" id="imagebot_30" d="M 459 522.54 C 459 525.302 456.134 527.54 452.601 527.54 L 365.4 527.54 C 361.867 527.54 359.001 525.302 359.001 522.54 S 361.867 517.54 365.4 517.54 L 452.601 517.54 C 456.131 517.54 459.001 519.78 459.001 522.54 L 459 522.54 Z" style="fill: rgb(141, 141, 141);"/>
        <rect stroke-width="1.5" id="imagebot_31" x="364" y="512.54" width="90" height="5" style="fill: rgb(141, 141, 141);"/>
        <rect stroke-width="1.5" id="imagebot_32" x="364" y="492.54" width="90" height="5" style="fill: rgb(141, 141, 141);"/>
        <path stroke-width="1.5" id="imagebot_33" d="M 454 497.54 L 364 497.54 S 367.996 497.456 367.996 504.997 C 367.996 512.54 364 512.54 364 512.54 L 454 512.54 S 449.996 512.622 449.996 505.081 S 453.996 497.541 453.996 497.541 L 454 497.54 Z" style="fill: rgb(141, 141, 141);"/>
      </g>
      <g id="imagebot_34" fill="#FFFFFF" stroke-miterlimit="10" stroke-width="0.5" stroke="#231F20">
        <path stroke-width="1.5" id="imagebot_35" d="M 459 255.46 C 459 258.222 456.134 260.46 452.601 260.46 L 365.4 260.46 C 361.867 260.46 359.001 258.222 359.001 255.46 S 361.867 250.459 365.4 250.459 L 452.601 250.459 C 456.131 250.459 459.001 252.699 459.001 255.459 L 459 255.46 Z" style="fill: rgb(141, 141, 141);"/>
        <rect stroke-width="1.5" id="imagebot_36" x="364" y="280.46" width="90" height="4.998" style="fill: rgb(141, 141, 141);"/>
        <rect stroke-width="1.5" id="imagebot_37" x="364" y="260.46" width="90" height="5" style="fill: rgb(141, 141, 141);"/>
        <path stroke-width="1.5" id="imagebot_38" d="M 454 265.46 L 364 265.46 S 367.995 265.376 367.995 272.917 C 367.995 280.46 364 280.46 364 280.46 L 454 280.46 S 449.995 280.54 449.995 273.001 C 449.995 265.461 453.995 265.461 453.995 265.461 L 454 265.46 Z" style="fill: rgb(141, 141, 141);"/>
        <rect stroke-width="1.5" id="imagebot_39" x="359" y="238.46" width="100" height="12" style="fill: rgb(141, 141, 141);"/>
      </g>
      <g id="imagebot_40">
        <g id="imagebot_41">
          <path stroke-width="1.5" id="imagebot_42" d="M404,484C404,486.76199 406.23801,489 409,489S414,486.76199 414,484L414,294C414,291.23801 411.76199,289 409,289S404,291.23801 404,294L404,484z" style="fill: rgb(141, 141, 141);"/>
          <path id="imagebot_43" d="M404,484C404,486.76199 406.23801,489 409,489S414,486.76199 414,484L414,294C414,291.23801 411.76199,289 409,289S404,291.23801 404,294L404,484z" stroke-miterlimit="10" stroke-width="1.5" stroke="#231F20" style="fill: rgb(141, 141, 141);"/>
        </g>
        <g id="imagebot_44">
          <path stroke-width="1.5" id="imagebot_45" d="M389.67001,485C389.67001,487.20901 391.461,489 393.67001,489S397.67001,487.20901 397.67001,485L397.67001,293C397.67001,290.79099 395.879,289 393.67001,289S389.67001,290.79099 389.67001,293L389.67001,485z" style="fill: rgb(141, 141, 141);"/>
          <path id="imagebot_46" d="M389.67001,485C389.67001,487.20901 391.461,489 393.67001,489S397.67001,487.20901 397.67001,485L397.67001,293C397.67001,290.79099 395.879,289 393.67001,289S389.67001,290.79099 389.67001,293L389.67001,485z" stroke-miterlimit="10" stroke-width="1.5" stroke="#231F20" style="fill: rgb(141, 141, 141);"/>
        </g>
        <g id="imagebot_47">
          <path stroke-width="1.5" id="imagebot_48" d="M379.67001,486C379.67001,487.65701 381.013,489 382.67001,489S385.67001,487.65701 385.67001,486L385.67001,292C385.67001,290.34299 384.327,289 382.67001,289S379.67001,290.34299 379.67001,292L379.67001,486z" style="fill: rgb(141, 141, 141);"/>
          <path id="imagebot_49" d="M379.67001,486C379.67001,487.65701 381.013,489 382.67001,489S385.67001,487.65701 385.67001,486L385.67001,292C385.67001,290.34299 384.327,289 382.67001,289S379.67001,290.34299 379.67001,292L379.67001,486z" stroke-miterlimit="10" stroke-width="1.5" stroke="#231F20" style="fill: rgb(141, 141, 141);"/>
        </g>
        <g id="imagebot_50">
          <path stroke-width="1.5" id="imagebot_51" d="M372,487C372,488.104 372.896,489 374,489S376,488.104 376,487L376,291C376,289.896 375.104,289 374,289S372,289.896 372,291L372,487z" style="fill: rgb(141, 141, 141);"/>
          <path id="imagebot_52" d="M372,487C372,488.104 372.896,489 374,489S376,488.104 376,487L376,291C376,289.896 375.104,289 374,289S372,289.896 372,291L372,487z" stroke-miterlimit="10" stroke-width="1.5" stroke="#231F20" style="fill: rgb(141, 141, 141);"/>
        </g>
        <g id="imagebot_53">
          <path stroke-width="1.5" id="imagebot_54" d="M367,488C367,488.55301 367.44699,489 368,489S369,488.55301 369,488L369,290C369,289.44699 368.55301,289 368,289S367,289.44699 367,290L367,488z" style="fill: rgb(141, 141, 141);"/>
          <path id="imagebot_55" d="M367,488C367,488.55301 367.44699,489 368,489S369,488.55301 369,488L369,290C369,289.44699 368.55301,289 368,289S367,289.44699 367,290L367,488z" stroke-miterlimit="10" stroke-width="1.5" stroke="#231F20" style="fill: rgb(141, 141, 141);"/>
        </g>
        <line id="imagebot_56" stroke-width="1.5" y1="285.46" stroke-miterlimit="10" stroke="#231F20" x2="366" x1="366" y2="492.54" style="fill: rgb(141, 141, 141);"/>
        <g id="imagebot_57">
          <path stroke-width="1.5" id="imagebot_58" d="M420.32999,485C420.32999,487.20901 422.121,489 424.32999,489S428.32999,487.20901 428.32999,485L428.32999,293C428.32999,290.79099 426.539,289 424.32999,289S420.32999,290.79099 420.32999,293L420.32999,485z" style="fill: rgb(141, 141, 141);"/>
          <path id="imagebot_59" d="M420.32999,485C420.32999,487.20901 422.121,489 424.32999,489S428.32999,487.20901 428.32999,485L428.32999,293C428.32999,290.79099 426.539,289 424.32999,289S420.32999,290.79099 420.32999,293L420.32999,485z" stroke-miterlimit="10" stroke-width="1.5" stroke="#231F20" style="fill: rgb(141, 141, 141);"/>
        </g>
        <g id="imagebot_60">
          <path stroke-width="1.5" id="imagebot_61" d="M432.32999,486C432.32999,487.65701 433.673,489 435.32999,489S438.32999,487.65701 438.32999,486L438.32999,292C438.32999,290.34299 436.987,289 435.32999,289S432.32999,290.34299 432.32999,292L432.32999,486z" style="fill: rgb(141, 141, 141);"/>
          <path id="imagebot_62" d="M432.32999,486C432.32999,487.65701 433.673,489 435.32999,489S438.32999,487.65701 438.32999,486L438.32999,292C438.32999,290.34299 436.987,289 435.32999,289S432.32999,290.34299 432.32999,292L432.32999,486z" stroke-miterlimit="10" stroke-width="1.5" stroke="#231F20" style="fill: rgb(141, 141, 141);"/>
        </g>
        <g id="imagebot_63">
          <path stroke-width="1.5" id="imagebot_64" d="M442,487C442,488.104 442.896,489 444,489S446,488.104 446,487L446,291C446,289.896 445.104,289 444,289S442,289.896 442,291L442,487z" style="fill: rgb(141, 141, 141);"/>
          <path id="imagebot_65" d="M442,487C442,488.104 442.896,489 444,489S446,488.104 446,487L446,291C446,289.896 445.104,289 444,289S442,289.896 442,291L442,487z" stroke-miterlimit="10" stroke-width="1.5" stroke="#231F20" style="fill: rgb(141, 141, 141);"/>
        </g>
        <g id="imagebot_66">
          <path stroke-width="1.5" id="imagebot_67" d="M449,488C449,488.55301 449.44699,489 450,489S451,488.55301 451,488L451,290C451,289.44699 450.55301,289 450,289S449,289.44699 449,290L449,488z" style="fill: rgb(141, 141, 141);"/>
          <path id="imagebot_68" d="M449,488C449,488.55301 449.44699,489 450,489S451,488.55301 451,488L451,290C451,289.44699 450.55301,289 450,289S449,289.44699 449,290L449,488z" stroke-miterlimit="10" stroke-width="1.5" stroke="#231F20" style="fill: rgb(141, 141, 141);"/>
        </g>
        <line id="imagebot_69" stroke-width="1.5" y1="285.46" stroke-miterlimit="10" stroke="#231F20" x2="452" x1="452" y2="492.54" style="fill: rgb(141, 141, 141);"/>
      </g>
    </g>
  </g>
</svg>