<?xml version="1.0" encoding="utf-8"?>
<!DOCTYPE svg PUBLIC "-//W3C//DTD SVG 1.1//EN" "http://www.w3.org/Graphics/SVG/1.1/DTD/svg11.dtd">
<svg version="1.1" xmlns="http://www.w3.org/2000/svg" xmlns:xlink="http://www.w3.org/1999/xlink" x="0px" y="0px" viewBox="0 0 256 256" enable-background="new 0 0 256 256" xml:space="preserve">
<metadata> Svg Vector Icons : http://www.onlinewebfonts.com/icon </metadata>
<g><g><path fill="#ffffff" d="M194.9,79.7c0,7.8-6.3,14.2-14.2,14.2s-14.2-6.3-14.2-14.2c0-7.8,6.3-14.2,14.2-14.2S194.9,71.8,194.9,79.7L194.9,79.7z M236.6,163.5V38.3H19.4v179.4h217.1v-10.1l-66.2-69.1l-20.2,20.2l-14.2,14.2c-1.9,1.9-4.8,1.9-6.7,0c-1.9-1.8-1.9-4.8,0-6.7l11-11l-45.6-49.8l-52.2,49.1c-1.9,1.8-4.9,1.7-6.7-0.2c-1.8-1.9-1.7-4.9,0.2-6.7l55.7-52.4c0.9-0.9,2.1-1.3,3.4-1.3c1.3,0,2.5,0.6,3.3,1.5l48.6,53l20.1-20.1c0.9-0.9,2.1-1.4,3.4-1.4c1.3,0,2.5,0.5,3.3,1.4l70.8,74c0.8,0.9,1.3,2,1.3,3.3v16.7c0,2.6-2.1,4.7-4.7,4.7H14.7c-2.6,0-4.7-2.1-4.7-4.7V33.6c0-2.6,2.1-4.7,4.7-4.7h226.6c2.6,0,4.7,2.1,4.7,4.7v129.9c0,2.6-2.1,4.7-4.7,4.7C238.7,168.2,236.6,166.1,236.6,163.5L236.6,163.5z"/><path fill="#ffffff" d="M244.7,202.4l-28.4-29.7l-42.4-44.3c-0.9-0.9-2.1-1.4-3.3-1.4c-1.3,0-2.5,0.5-3.4,1.4L147,148.5l-48.6-53c-0.8-0.9-2-1.5-3.3-1.5c-1.3,0-2.5,0.4-3.4,1.3l-48.9,46l-23.4,21.6v0l-9.4,8.8v50.8c0,2.6,2.1,4.7,4.7,4.7h226.6c2.6,0,4.7-2.1,4.7-4.7v-16.7C246,204.4,245.5,203.3,244.7,202.4z"/><path fill="#ffffff" d="M180.7,93.8c7.8,0,14.2-6.3,14.2-14.2c0-7.8-6.3-14.2-14.2-14.2s-14.2,6.3-14.2,14.2C166.6,87.5,172.9,93.8,180.7,93.8z"/></g></g>
</svg>