<svg xmlns="http://www.w3.org/2000/svg" viewBox="0 0 11 11" fill="none" x="0px" y="0px"><path d="M8.5213 4.1877L1.5 0.133997C1.34798 0.0462302 1.17554 2.40031e-05 1.00001 2.28882e-05C0.824472 2.17734e-05 0.652029 0.0462258 0.500011 0.133991C0.347993 0.221756 0.221754 0.347991 0.133984 0.500006C0.046214 0.652022 4.45921e-06 0.824463 0 0.999997V9.1075C4.45921e-06 9.28303 0.046214 9.45547 0.133984 9.60749C0.221754 9.7595 0.347993 9.88574 0.500011 9.9735C0.652029 10.0613 0.824472 10.1075 1.00001 10.1075C1.17554 10.1075 1.34798 10.0613 1.5 9.9735L8.5213 5.92C8.67331 5.83223 8.79953 5.70599 8.88729 5.55398C8.97505 5.40196 9.02126 5.22953 9.02126 5.054C9.02126 4.87847 8.97505 4.70603 8.88729 4.55402C8.79953 4.40201 8.67331 4.27547 8.5213 4.1877ZM1 9.1075V0.999997L8.0213 5.0537L1 9.1075Z" fill="white"/><path d="M10.3871 9.9916C10.5197 9.9916 10.6469 9.93892 10.7406 9.84515C10.8344 9.75139 10.8871 9.62421 10.8871 9.4916V0.6157C10.8871 0.483092 10.8344 0.355915 10.7406 0.262146C10.6469 0.168378 10.5197 0.1157 10.3871 0.1157C10.2545 0.1157 10.1273 0.168378 10.0335 0.262146C9.93976 0.355915 9.88708 0.483092 9.88708 0.6157V9.4916C9.88708 9.62421 9.93976 9.75139 10.0335 9.84515C10.1273 9.93892 10.2545 9.9916 10.3871 9.9916Z" fill="white"/></svg>