<svg xmlns="http://www.w3.org/2000/svg" viewBox="0 0 11 11" fill="none" x="0px" y="0px"><path d="M1.86578 5.05381C1.86579 5.22934 1.912 5.40178 1.99976 5.55379C2.08753 5.70581 2.21377 5.83204 2.36578 5.91981L9.38708 9.97351C9.5391 10.0613 9.71154 10.1075 9.88708 10.1075C10.0626 10.1075 10.2351 10.0613 10.3871 9.97351C10.5391 9.88575 10.6653 9.75951 10.7531 9.6075C10.8409 9.45548 10.8871 9.28304 10.8871 9.1075V1.00001C10.8871 0.824471 10.8409 0.65203 10.7531 0.500014C10.6653 0.347998 10.5391 0.221764 10.3871 0.133999C10.2351 0.0462334 10.0626 2.94027e-05 9.88708 3.05176e-05C9.71154 3.16324e-05 9.5391 0.0462379 9.38708 0.134005L2.36578 4.18771C2.21375 4.27548 2.08751 4.40173 1.99974 4.55376C1.91197 4.7058 1.86577 4.87826 1.86578 5.05381ZM9.88708 1.00001V9.1075L2.86578 5.05381L9.88708 1.00001Z" fill="white"/><path d="M0.5 9.99161C0.632608 9.99161 0.759785 9.93893 0.853553 9.84516C0.947322 9.75139 1 9.62422 1 9.49161V0.615707C1 0.483099 0.947322 0.355922 0.853553 0.262154C0.759785 0.168386 0.632608 0.115707 0.5 0.115707C0.367392 0.115707 0.240215 0.168386 0.146447 0.262154C0.0526784 0.355922 0 0.483099 0 0.615707V9.49161C0 9.62422 0.0526784 9.75139 0.146447 9.84516C0.240215 9.93893 0.367392 9.99161 0.5 9.99161Z" fill="white"/></svg>